<?xml version="1.0" standalone="no"?>
<!DOCTYPE svg PUBLIC "-//W3C//DTD SVG 20010904//EN"
 "http://www.w3.org/TR/2001/REC-SVG-20010904/DTD/svg10.dtd">
<svg version="1.0" xmlns="http://www.w3.org/2000/svg"
 width="1214.000000pt" height="1220.000000pt" viewBox="0 0 1214.000000 1220.000000"
 preserveAspectRatio="xMidYMid meet">
<metadata>
Created by potrace 1.16, written by Peter Selinger 2001-2019
</metadata>
<g transform="translate(0.000000,1220.000000) scale(0.100000,-0.100000)"
fill="#000000" stroke="none">
<path d="M0 6100 l0 -6100 6070 0 6070 0 0 6100 0 6100 -6070 0 -6070 0 0
-6100z m2880 1426 c-33 -335 -57 -612 -55 -616 2 -4 591 -434 1309 -956 718
-522 1304 -950 1302 -951 -1 -1 -710 292 -1576 651 l-1575 653 -183 271 -182
272 506 645 c279 355 508 644 510 643 1 -2 -24 -277 -56 -612z m6469 -49 l491
-627 -182 -272 -183 -271 -1575 -653 c-866 -359 -1575 -652 -1576 -651 -2 1
584 429 1302 951 718 522 1307 952 1309 956 4 7 -95 1075 -111 1190 -5 45 -5
45 14 25 10 -11 240 -302 511 -648z m-3367 -922 c149 -239 150 -241 66 -150
-40 44 -94 102 -121 130 l-48 50 -125 -130 c-118 -122 -123 -126 -88 -70 117
189 208 325 215 323 4 -2 50 -70 101 -153z m-3777 -741 c133 -251 207 -379
220 -384 11 -4 664 -126 1452 -271 788 -145 1430 -265 1428 -267 -2 -2 -717
-35 -1589 -73 l-1587 -69 -244 210 -244 210 63 183 c35 100 115 329 177 509
63 180 116 328 119 328 3 0 95 -169 205 -376z m7674 48 c62 -180 142 -409 177
-509 l63 -183 -244 -210 -244 -210 -1587 69 c-872 38 -1587 71 -1589 73 -2 2
640 122 1428 267 788 145 1441 267 1452 271 13 5 87 133 220 384 110 207 202
376 205 376 3 0 56 -148 119 -328z m-3545 -6 l86 -105 0 -133 c0 -130 -1 -137
-40 -253 -71 -208 -194 -755 -346 -1537 -82 -417 -151 -758 -154 -758 -3 0
-72 341 -154 758 -152 782 -275 1329 -346 1537 -39 116 -40 123 -40 253 l0
133 86 105 86 104 368 0 368 0 86 -104z m-1279 -1218 c-2 -7 -27 -98 -55 -202
l-51 -189 -108 -156 -107 -156 -203 -103 -203 -103 -251 11 c-138 6 -252 12
-253 13 -1 1 21 52 49 114 49 108 54 116 167 228 l117 116 134 40 c74 23 220
62 324 89 l190 49 124 130 c68 72 125 131 127 131 2 0 1 -6 -1 -12z m2090
-298 c105 -26 250 -66 324 -89 l134 -40 117 -116 c112 -112 118 -120 167 -228
28 -62 50 -113 49 -114 -1 -1 -115 -7 -253 -13 l-251 -11 -203 103 -203 103
-107 156 -108 156 -41 154 c-23 85 -48 177 -55 204 l-15 50 128 -133 127 -133
190 -49z"/>
</g>
</svg>
